<?xml version="1.0" encoding="UTF-8"?>
<svg xmlns="http://www.w3.org/2000/svg" width="220" height="130" viewBox="0 0 220 130">
  <!-- ===== half-turn (plan view): width is ONE flight ===== -->
  <!-- up flight (left), turn block (top), down flight (right) -->
  <rect x="78" y="42" width="30" height="52" fill="#eaf2ff" stroke="#1a5fb4" stroke-width="2"/>
  <rect x="113" y="42" width="30" height="52" fill="#eaf2ff" stroke="#1a5fb4" stroke-width="2"/>
  <rect x="78" y="22" width="65" height="20" fill="#cfe3ff" stroke="#1a5fb4" stroke-width="2"/>
  <g stroke="#1a5fb4" stroke-width="1">
    <line x1="78" y1="52" x2="108" y2="52"/>
    <line x1="78" y1="62" x2="108" y2="62"/>
    <line x1="78" y1="72" x2="108" y2="72"/>
    <line x1="78" y1="82" x2="108" y2="82"/>
    <line x1="113" y1="52" x2="143" y2="52"/>
    <line x1="113" y1="62" x2="143" y2="62"/>
    <line x1="113" y1="72" x2="143" y2="72"/>
    <line x1="113" y1="82" x2="143" y2="82"/>
  </g>
  <!-- ascent path: up the left flight, around the turn, down the right flight.
       Its TOTAL length is L (the whole run, not one flight). -->
  <g stroke="#e66100" stroke-width="2.5" fill="none">
    <polyline points="93,88 93,32 128,32 128,84"/>
  </g>
  <polygon points="128,90 123,80 133,80" fill="#e66100"/>
  <!-- W on a single flight (label below the line) -->
  <g stroke="#666666" stroke-width="1">
    <line x1="78" y1="100" x2="108" y2="100"/>
    <line x1="78" y1="97" x2="78" y2="103"/>
    <line x1="108" y1="97" x2="108" y2="103"/>
  </g>
  <g font-family="sans-serif" font-size="13" font-weight="bold">
    <text x="88" y="114" fill="#c01c28">W</text>
    <!-- single L just above the arrow = the whole ascent path (both flights) -->
    <text x="107" y="30" fill="#e66100">L</text>
  </g>
  <!-- legend -->
  <text x="10" y="126" font-family="sans-serif" font-size="10" fill="#333333">L total run (along the arrow) · W width (per flight) · H total rise</text>
</svg>
