<?xml version="1.0" encoding="UTF-8"?>
<svg xmlns="http://www.w3.org/2000/svg" width="220" height="130" viewBox="0 0 220 130">
  <!-- ===== half-turn (plan view): width is ONE flight ===== -->
  <!-- up flight (left), turn block (top), down flight (right) -->
  <rect x="78" y="42" width="30" height="52" fill="#eaf2ff" stroke="#1a5fb4" stroke-width="2"/>
  <rect x="113" y="42" width="30" height="52" fill="#eaf2ff" stroke="#1a5fb4" stroke-width="2"/>
  <rect x="78" y="22" width="65" height="20" fill="#cfe3ff" stroke="#1a5fb4" stroke-width="2"/>
  <g stroke="#1a5fb4" stroke-width="1">
    <line x1="78" y1="52" x2="108" y2="52"/>
    <line x1="78" y1="62" x2="108" y2="62"/>
    <line x1="78" y1="72" x2="108" y2="72"/>
    <line x1="78" y1="82" x2="108" y2="82"/>
    <line x1="113" y1="52" x2="143" y2="52"/>
    <line x1="113" y1="62" x2="143" y2="62"/>
    <line x1="113" y1="72" x2="143" y2="72"/>
    <line x1="113" y1="82" x2="143" y2="82"/>
  </g>
  <!-- ascent arrow up the left flight -->
  <g stroke="#e66100" stroke-width="2" fill="#e66100">
    <line x1="93" y1="90" x2="93" y2="36"/>
    <polygon points="93,30 88,42 98,42"/>
  </g>
  <!-- W on a single flight (label below the line) -->
  <g stroke="#666666" stroke-width="1">
    <line x1="78" y1="100" x2="108" y2="100"/>
    <line x1="78" y1="97" x2="78" y2="103"/>
    <line x1="108" y1="97" x2="108" y2="103"/>
  </g>
  <!-- L = run length of one flight -->
  <g stroke="#666666" stroke-width="1">
    <line x1="66" y1="42" x2="66" y2="94"/>
    <line x1="63" y1="42" x2="69" y2="42"/>
    <line x1="63" y1="94" x2="69" y2="94"/>
  </g>
  <g font-family="sans-serif" font-size="13" font-weight="bold" fill="#c01c28">
    <text x="88" y="114">W</text>
    <text x="54" y="76">L</text>
  </g>
  <!-- legend -->
  <text x="10" y="126" font-family="sans-serif" font-size="10" fill="#333333">W width (per flight) · L run length · H total rise</text>
</svg>
