<?xml version="1.0" encoding="UTF-8"?>
<svg xmlns="http://www.w3.org/2000/svg" width="220" height="130" viewBox="0 0 220 130">
  <!-- ===== quarter-turn (plan view): width is ONE flight ===== -->
  <!-- up flight (vertical), turn square (corner), exit flight (horizontal) -->
  <rect x="92" y="52" width="30" height="56" fill="#eaf2ff" stroke="#1a5fb4" stroke-width="2"/>
  <rect x="92" y="22" width="30" height="30" fill="#cfe3ff" stroke="#1a5fb4" stroke-width="2"/>
  <rect x="30" y="22" width="62" height="30" fill="#eaf2ff" stroke="#1a5fb4" stroke-width="2"/>
  <g stroke="#1a5fb4" stroke-width="1">
    <line x1="92" y1="62" x2="122" y2="62"/>
    <line x1="92" y1="72" x2="122" y2="72"/>
    <line x1="92" y1="82" x2="122" y2="82"/>
    <line x1="92" y1="92" x2="122" y2="92"/>
    <line x1="92" y1="102" x2="122" y2="102"/>
    <line x1="40" y1="22" x2="40" y2="52"/>
    <line x1="50" y1="22" x2="50" y2="52"/>
    <line x1="60" y1="22" x2="60" y2="52"/>
    <line x1="70" y1="22" x2="70" y2="52"/>
    <line x1="80" y1="22" x2="80" y2="52"/>
  </g>
  <!-- ascent arrow: up the first flight, then left along the second -->
  <g stroke="#e66100" stroke-width="2" fill="none">
    <polyline points="107,104 107,37 42,37"/>
  </g>
  <polygon points="34,37 46,32 46,42" fill="#e66100"/>
  <!-- W on the first flight (label below the line) -->
  <g stroke="#666666" stroke-width="1">
    <line x1="92" y1="115" x2="122" y2="115"/>
    <line x1="92" y1="112" x2="92" y2="118"/>
    <line x1="122" y1="112" x2="122" y2="118"/>
  </g>
  <!-- L = run length of one flight -->
  <g stroke="#666666" stroke-width="1">
    <line x1="132" y1="52" x2="132" y2="108"/>
    <line x1="129" y1="52" x2="135" y2="52"/>
    <line x1="129" y1="108" x2="135" y2="108"/>
  </g>
  <g font-family="sans-serif" font-size="13" font-weight="bold" fill="#c01c28">
    <text x="124" y="120">W</text>
    <text x="138" y="84">L</text>
  </g>
  <!-- legend -->
  <text x="10" y="126" font-family="sans-serif" font-size="10" fill="#333333">W width (per flight) · L run length · H total rise</text>
</svg>
